<svg width="20" height="20" viewBox="0 0 20 20" fill="none" xmlns="http://www.w3.org/2000/svg">
<path d="M9.99999 12.5C10.884 12.5 11.7319 12.1489 12.357 11.5237C12.9821 10.8986 13.3333 10.0508 13.3333 9.16671V4.16671C13.3333 3.28265 12.9821 2.43481 12.357 1.80968C11.7319 1.18456 10.884 0.833374 9.99999 0.833374C9.11594 0.833374 8.26809 1.18456 7.64297 1.80968C7.01785 2.43481 6.66666 3.28265 6.66666 4.16671V9.16671C6.66666 10.0508 7.01785 10.8986 7.64297 11.5237C8.26809 12.1489 9.11594 12.5 9.99999 12.5ZM8.33333 4.16671C8.33333 3.72468 8.50892 3.30076 8.82148 2.9882C9.13404 2.67564 9.55797 2.50004 9.99999 2.50004C10.442 2.50004 10.8659 2.67564 11.1785 2.9882C11.4911 3.30076 11.6667 3.72468 11.6667 4.16671V9.16671C11.6667 9.60873 11.4911 10.0327 11.1785 10.3452C10.8659 10.6578 10.442 10.8334 9.99999 10.8334C9.55797 10.8334 9.13404 10.6578 8.82148 10.3452C8.50892 10.0327 8.33333 9.60873 8.33333 9.16671V4.16671ZM16.6667 9.16671C16.6667 8.94569 16.5789 8.73373 16.4226 8.57745C16.2663 8.42117 16.0543 8.33337 15.8333 8.33337C15.6123 8.33337 15.4004 8.42117 15.2441 8.57745C15.0878 8.73373 15 8.94569 15 9.16671C15 10.4928 14.4732 11.7646 13.5355 12.7022C12.5978 13.6399 11.3261 14.1667 9.99999 14.1667C8.67391 14.1667 7.40214 13.6399 6.46446 12.7022C5.52678 11.7646 4.99999 10.4928 4.99999 9.16671C4.99999 8.94569 4.9122 8.73373 4.75592 8.57745C4.59964 8.42117 4.38768 8.33337 4.16666 8.33337C3.94565 8.33337 3.73369 8.42117 3.57741 8.57745C3.42113 8.73373 3.33333 8.94569 3.33333 9.16671C3.3348 10.7894 3.9281 12.3559 5.00199 13.5725C6.07589 14.7891 7.55664 15.5722 9.16666 15.775V17.5H7.49999C7.27898 17.5 7.06702 17.5878 6.91074 17.7441C6.75446 17.9004 6.66666 18.1124 6.66666 18.3334C6.66666 18.5544 6.75446 18.7663 6.91074 18.9226C7.06702 19.0789 7.27898 19.1667 7.49999 19.1667H12.5C12.721 19.1667 12.933 19.0789 13.0893 18.9226C13.2455 18.7663 13.3333 18.5544 13.3333 18.3334C13.3333 18.1124 13.2455 17.9004 13.0893 17.7441C12.933 17.5878 12.721 17.5 12.5 17.5H10.8333V15.775C12.4433 15.5722 13.9241 14.7891 14.998 13.5725C16.0719 12.3559 16.6652 10.7894 16.6667 9.16671Z" fill="#75839D"/>
</svg>
