<svg width="20" height="20" viewBox="0 0 20 20" fill="none" xmlns="http://www.w3.org/2000/svg">
<path d="M15.5921 6.00842C15.5146 5.93031 15.4224 5.86831 15.3209 5.82601C15.2193 5.7837 15.1104 5.76192 15.0004 5.76192C14.8904 5.76192 14.7815 5.7837 14.6799 5.82601C14.5784 5.86831 14.4862 5.93031 14.4087 6.00842L8.20041 12.2251L5.59207 9.60842C5.51164 9.53072 5.41669 9.46962 5.31264 9.42862C5.20859 9.38761 5.09749 9.36751 4.98567 9.36944C4.87386 9.37138 4.76352 9.39531 4.66095 9.43989C4.55839 9.48447 4.4656 9.54881 4.38791 9.62925C4.31021 9.70968 4.24911 9.80463 4.20811 9.90868C4.16711 10.0127 4.147 10.1238 4.14893 10.2356C4.15087 10.3475 4.17481 10.4578 4.21938 10.5604C4.26396 10.6629 4.3283 10.7557 4.40874 10.8334L7.60874 14.0334C7.68621 14.1115 7.77838 14.1735 7.87993 14.2158C7.98147 14.2581 8.0904 14.2799 8.20041 14.2799C8.31042 14.2799 8.41934 14.2581 8.52089 14.2158C8.62244 14.1735 8.7146 14.1115 8.79207 14.0334L15.5921 7.23342C15.6767 7.15538 15.7442 7.06067 15.7903 6.95525C15.8365 6.84984 15.8603 6.736 15.8603 6.62092C15.8603 6.50583 15.8365 6.39199 15.7903 6.28658C15.7442 6.18116 15.6767 6.08645 15.5921 6.00842Z" fill="white"/>
</svg>
