<svg width="20" height="20" viewBox="0 0 20 20" fill="none" xmlns="http://www.w3.org/2000/svg">
<path d="M11.9666 11.8583C11.4096 12.3074 10.7155 12.5524 9.99996 12.5524C9.28439 12.5524 8.59036 12.3074 8.0333 11.8583C7.86312 11.7168 7.64371 11.6488 7.42336 11.6691C7.203 11.6894 6.99975 11.7964 6.8583 11.9666C6.71685 12.1368 6.6488 12.3562 6.66911 12.5766C6.68943 12.7969 6.79645 13.0002 6.96663 13.1416C7.81774 13.8521 8.89126 14.2413 9.99996 14.2413C11.1087 14.2413 12.1822 13.8521 13.0333 13.1416C13.2035 13.0002 13.3105 12.7969 13.3308 12.5766C13.3511 12.3562 13.2831 12.1368 13.1416 11.9666C13.0716 11.8824 12.9856 11.8127 12.8887 11.7617C12.7917 11.7106 12.6857 11.6792 12.5766 11.6691C12.3562 11.6488 12.1368 11.7168 11.9666 11.8583ZM7.49996 9.16663C7.66478 9.16663 7.8259 9.11775 7.96294 9.02618C8.09998 8.93462 8.20679 8.80447 8.26986 8.6522C8.33294 8.49992 8.34944 8.33237 8.31728 8.17072C8.28513 8.00907 8.20576 7.86058 8.08922 7.74404C7.97267 7.62749 7.82419 7.54813 7.66254 7.51597C7.50089 7.48382 7.33333 7.50032 7.18106 7.56339C7.02879 7.62647 6.89864 7.73328 6.80707 7.87032C6.7155 8.00736 6.66663 8.16848 6.66663 8.33329C6.66663 8.55431 6.75443 8.76627 6.91071 8.92255C7.06699 9.07883 7.27895 9.16663 7.49996 9.16663ZM12.5 7.49996C12.3351 7.49996 12.174 7.54883 12.037 7.6404C11.8999 7.73197 11.7931 7.86212 11.7301 8.01439C11.667 8.16666 11.6505 8.33422 11.6826 8.49587C11.7148 8.65752 11.7942 8.806 11.9107 8.92255C12.0273 9.03909 12.1757 9.11846 12.3374 9.15061C12.499 9.18277 12.6666 9.16627 12.8189 9.10319C12.9711 9.04012 13.1013 8.93331 13.1929 8.79627C13.2844 8.65923 13.3333 8.49811 13.3333 8.33329C13.3333 8.11228 13.2455 7.90032 13.0892 7.74404C12.9329 7.58776 12.721 7.49996 12.5 7.49996ZM9.99996 1.66663C8.35179 1.66663 6.74062 2.15537 5.37021 3.07105C3.9998 3.98672 2.9317 5.28821 2.30097 6.81093C1.67024 8.33365 1.50521 10.0092 1.82675 11.6257C2.1483 13.2422 2.94197 14.7271 4.10741 15.8925C5.27284 17.058 6.7577 17.8516 8.37421 18.1732C9.99072 18.4947 11.6663 18.3297 13.189 17.699C14.7117 17.0682 16.0132 16.0001 16.9289 14.6297C17.8446 13.2593 18.3333 11.6481 18.3333 9.99996C18.3333 8.90561 18.1177 7.82198 17.699 6.81093C17.2802 5.79988 16.6663 4.88122 15.8925 4.1074C15.1187 3.33358 14.2 2.71975 13.189 2.30096C12.1779 1.88217 11.0943 1.66663 9.99996 1.66663ZM9.99996 16.6666C8.68142 16.6666 7.39249 16.2756 6.29616 15.5431C5.19983 14.8105 4.34535 13.7694 3.84077 12.5512C3.33618 11.333 3.20416 9.99256 3.46139 8.69936C3.71863 7.40615 4.35357 6.21826 5.28592 5.28591C6.21827 4.35356 7.40615 3.71863 8.69936 3.46139C9.99257 3.20416 11.333 3.33618 12.5512 3.84076C13.7694 4.34535 14.8105 5.19983 15.5431 6.29616C16.2756 7.39249 16.6666 8.68142 16.6666 9.99996C16.6666 11.7681 15.9643 13.4638 14.714 14.714C13.4638 15.9642 11.7681 16.6666 9.99996 16.6666Z" fill="#75839D"/>
</svg>
